<?xml version="1.0" standalone="no"?><!DOCTYPE svg PUBLIC "-//W3C//DTD SVG 1.1//EN" "http://www.w3.org/Graphics/SVG/1.1/DTD/svg11.dtd"><svg t="1511166520621" class="icon" style="" viewBox="0 0 1024 1024" version="1.1" xmlns="http://www.w3.org/2000/svg" p-id="8027" xmlns:xlink="http://www.w3.org/1999/xlink" width="25" height="25"><defs><style type="text/css"></style></defs><path d="M523.838354 222.63841600000006C520.836499 219.7241350000001 516.6852299999998 218.09062900000004 512.402599 218.09062900000004c-4.330067 8.881784197001252e-16-8.436332999999998 1.6335060000000006-11.483191 4.547787000000001L523.838354 222.63841600000006zM500.9631950000001 222.638416l-308.0404710000001 295.01134799999994c-13.559433999999998 12.942764000000002-12.720179999999994 34.537149 0.795466999999995 47.475048 13.470643 12.898976999999999 35.287611999999996 12.98655199999999 48.889617 0.04865199999998637l269.83857699999993-258.18023700000003 269.83857700000004 258.1802369999999c13.558218000000004 12.939115999999997 35.371538 12.850324999999998 48.842181-0.04743600000000825 13.515646999999998-12.937899 14.353684999999999-34.533500000000004 0.7966839999999991-47.475048L523.882141 222.638416 500.9631950000001 222.638416zM523.6632050000001 451.539617c-3.0018550000000004-2.914281-7.156773-4.549002999999997-11.439403999999998-4.549002999999999-4.326418 0-8.433899999999998 1.6347220000000013-11.481975 4.549003000000001L523.6632050000001 451.539617zM500.74304199999995 451.539617l-308.04290299999997 295.0125650000001c-13.511997999999995 12.937899-12.672742999999999 34.535932 0.8429029999999926 47.475048 13.466995000000006 12.894111999999996 35.283963 12.985334999999997 48.842181 0.04378699999999114l269.83857699999993-258.18145400000003 269.83857700000004 258.1814539999999c13.558218000000002 12.941547999999997 35.375187 12.850324999999998 48.84583000000001-0.04378700000001601 13.511997999999998-12.939116000000004 14.351252999999998-34.537149 0.7954670000000021-47.475048L523.6632050000001 451.539617 500.74304199999995 451.539617z" fill="#ababab" p-id="8028"></path></svg>