<?xml version="1.0" standalone="no"?><!DOCTYPE svg PUBLIC "-//W3C//DTD SVG 1.1//EN" "http://www.w3.org/Graphics/SVG/1.1/DTD/svg11.dtd"><svg t="1511161392978" class="icon" style="" viewBox="0 0 1024 1024" version="1.1" xmlns="http://www.w3.org/2000/svg" p-id="5084" xmlns:xlink="http://www.w3.org/1999/xlink" width="25" height="25"><defs><style type="text/css"></style></defs><path d="M499.259 778.842c3.080 2.96 7.258 4.613 11.615 4.613 4.342 0 8.521-1.654 11.6-4.613M522.475 778.842l311.888-298.727c13.718-13.106 12.864-34.978-0.812-48.059-13.652-13.055-35.74-13.162-49.459-0.055l-273.232 261.411-273.203-261.412c-13.731-13.108-35.821-12.998-49.47 0.055-13.677 13.081-14.533 34.952-0.815 48.058l311.89 298.727z" fill="#ababab" p-id="5085"></path><path d="M499.062 547.074c3.080 2.96 7.258 4.613 11.615 4.613 4.342 0 8.521-1.655 11.6-4.613M522.277 547.074l311.888-298.727c13.718-13.106 12.864-34.978-0.812-48.059-13.651-13.055-35.74-13.163-49.458-0.055l-273.232 261.412-273.203-261.412c-13.731-13.107-35.821-12.998-49.47 0.056-13.677 13.081-14.533 34.952-0.815 48.058l311.89 298.727z" fill="#ababab" p-id="5086"></path></svg>